<?xml version="1.0" encoding="utf-8"?>
<!-- Generator: Adobe Illustrator 19.0.0, SVG Export Plug-In . SVG Version: 6.00 Build 0)  -->
<svg version="1.1" id="Layer_1" xmlns="http://www.w3.org/2000/svg" xmlns:xlink="http://www.w3.org/1999/xlink" x="0px" y="0px"
	 viewBox="0 0 1000 270" style="enable-background:new 0 0 1000 270;" xml:space="preserve">
<style type="text/css">
	.st0{fill:#C2C9CB;}
	.st1{fill:#777E94;}
	.st2{fill:#D09596;}
	.st3{fill:#A78A8B;}
	.st4{fill:#E6DBD3;}
	.st5{fill:#D9BFBF;}
	.st6{fill:#917779;}
	.st7{fill:#595757;}
</style>
<g id="XMLID_8_">
	<g id="XMLID_10_">
		<polygon id="XMLID_18_" class="st0" points="277.8,14.6 109.4,17.4 107.1,63.2 169.1,130.6 270.6,155.3 360.1,93.2 		"/>
		<polygon id="XMLID_17_" class="st1" points="44.2,112.2 107.2,63.3 109.4,17.4 		"/>
		<polygon id="XMLID_16_" class="st2" points="169.1,130.6 107.2,63.3 44.2,112.2 103.1,193.4 		"/>
		<polygon id="XMLID_15_" class="st3" points="44.2,112.2 24.9,177.5 55.9,241.6 103.1,193.4 		"/>
		<polygon id="XMLID_14_" class="st4" points="270.6,155.3 169.1,130.6 103.1,193.4 142.8,248.2 232.5,255.4 289.1,207.2 		"/>
		<polygon id="XMLID_13_" class="st5" points="289.1,207.2 353.1,234 360.1,93.2 270.6,155.3 		"/>
		<polygon id="XMLID_12_" class="st6" points="232.5,255.4 353.1,234 289.1,207.2 		"/>
		<polygon id="XMLID_11_" class="st6" points="55.8,241.6 103.1,193.4 142.8,248.2 		"/>
	</g>
	<g id="XMLID_50_">
		<path id="XMLID_51_" class="st7" d="M450.8,106.5c-1.4-9-9-21.2-26.3-21.2c-14,0-24,9.1-24,20.7c0,9,5.4,15.8,16,18.1l18.6,4
			c20.7,4.6,32.3,17.6,32.3,34.9c0,19.3-16.5,36.9-43,36.9c-30,0-44.2-19.3-46.5-37l16.5-5.3c1.2,13.9,11.1,26.7,29.8,26.7
			c17.2,0,25.6-9,25.6-19.8c0-9-6.1-16.7-18.6-19.3l-17.7-3.9c-17.7-3.9-30.4-15.4-30.4-34.1c0-19.5,18.1-37,41.1-37
			c28.1,0,39.3,17.4,42.1,30.9L450.8,106.5z"/>
		<path id="XMLID_53_" class="st7" d="M543.6,88.7v108.5h-17.2V88.7h-41.6v-16h100.4v16H543.6z"/>
		<path id="XMLID_55_" class="st7" d="M661.8,70.1c31.2,0,62.5,23.2,62.5,64.8s-31.2,64.9-62.5,64.9c-31.2,0-62.5-23.3-62.5-64.9
			S630.5,70.1,661.8,70.1z M661.8,184.1c23.2,0,44.9-16.7,44.9-49.1c0-32.5-21.8-49-44.9-49c-23.2,0-44.9,16.5-44.9,49
			C616.8,167.4,638.6,184.1,661.8,184.1z"/>
		<path id="XMLID_58_" class="st7" d="M841.2,197.2L773.9,95.8v101.5h-17.2V72.8h23l62.1,95.5V72.8h17.2v124.4H841.2z"/>
		<path id="XMLID_60_" class="st7" d="M899.4,197.2V72.8h75.7v16h-58.4V127h53v16.1h-53v38.1h58.4v16H899.4z"/>
	</g>
</g>
</svg>
