<?xml version="1.0" encoding="utf-8"?>
<!-- Generator: Adobe Illustrator 19.0.0, SVG Export Plug-In . SVG Version: 6.00 Build 0)  -->
<svg version="1.1" id="Layer_1" xmlns="http://www.w3.org/2000/svg" xmlns:xlink="http://www.w3.org/1999/xlink" x="0px" y="0px"
	 viewBox="0 0 600.5 128" style="enable-background:new 0 0 600.5 128;" xml:space="preserve">
<style type="text/css">
	.st0{fill:#C2C9CB;}
	.st1{fill:#777E94;}
	.st2{fill:#D09596;}
	.st3{fill:#A78A8B;}
	.st4{fill:#E6DBD3;}
	.st5{fill:#D9BFBF;}
	.st6{fill:#917779;}
	.st7{fill:#595757;}
</style>
<g id="XMLID_393_">
	<polygon id="XMLID_418_" class="st0" points="129.7,2.2 43.9,6.7 43.6,30.1 76.4,63.3 128.6,74.1 173.1,40.8 	"/>
	<polygon id="XMLID_396_" class="st1" points="12.4,56.2 43.6,30.1 44,6.7 	"/>
	<polygon id="XMLID_392_" class="st2" points="76.4,63.3 43.6,30.1 12.4,56.2 43.9,96.5 	"/>
	<polygon id="XMLID_397_" class="st3" points="12.4,56.2 3.8,89.8 20.7,122 43.9,96.5 	"/>
	<polygon id="XMLID_425_" class="st4" points="128.6,74.1 76.4,63.3 43.9,96.5 65.2,123.7 111,125.8 139,100.2 	"/>
	<polygon id="XMLID_401_" class="st5" points="139,100.2 172.1,112.7 173.1,40.8 128.6,74.1 	"/>
	<polygon id="XMLID_403_" class="st6" points="111,125.8 172.1,112.7 139,100.2 	"/>
	<polygon id="XMLID_399_" class="st6" points="20.6,122 43.9,96.5 65.2,123.7 	"/>
</g>
<g id="XMLID_8_">
	<g id="XMLID_50_">
		<path id="XMLID_51_" class="st7" d="M262,45.7c-0.9-5.7-5.7-13.6-16.9-13.6c-9,0-15.4,5.8-15.4,13.3c0,5.7,3.5,10.1,10.2,11.6
			l11.9,2.6c13.3,2.9,20.7,11.2,20.7,22.4c0,12.4-10.6,23.6-27.6,23.6c-19.2,0-28.3-12.4-29.8-23.7l10.6-3.4
			c0.8,8.9,7.1,17.1,19.1,17.1c11,0,16.4-5.7,16.4-12.7c0-5.7-3.9-10.7-11.9-12.4L238,68c-11.4-2.5-19.5-9.9-19.5-21.8
			c0-12.5,11.6-23.7,26.3-23.7c18,0,25.2,11.1,27,19.8L262,45.7z"/>
		<path id="XMLID_53_" class="st7" d="M321.5,34.4v69.5h-11V34.4h-26.7V24.1h64.3v10.2H321.5z"/>
		<path id="XMLID_55_" class="st7" d="M397.2,22.4c20,0,40,14.8,40,41.5s-20,41.6-40,41.6c-20,0-40-15-40-41.6
			S377.2,22.4,397.2,22.4z M397.2,95.4c14.8,0,28.8-10.7,28.8-31.5c0-20.8-13.9-31.4-28.8-31.4c-14.8,0-28.8,10.6-28.8,31.4
			C368.4,84.8,382.4,95.4,397.2,95.4z"/>
		<path id="XMLID_58_" class="st7" d="M512.2,103.9l-43.1-65v65h-11V24.1h14.7l39.8,61.2V24.1h11v79.8H512.2z"/>
		<path id="XMLID_60_" class="st7" d="M549.5,103.9V24.1H598v10.2h-37.5v24.5h34v10.3h-34v24.4H598v10.2H549.5z"/>
	</g>
</g>
</svg>
